<?xml version="1.0" encoding="UTF-8"?>
<svg id="Primary_NBG_" data-name="Primary [NBG]" xmlns="http://www.w3.org/2000/svg" xmlns:xlink="http://www.w3.org/1999/xlink" viewBox="0 0 464.89 447.93">
  <defs>
    <style>
      .cls-1, .cls-2 {
        fill: #ff914d;
      }

      .cls-3 {
        clip-path: url(#clippath-1);
      }

      .cls-2, .cls-4 {
        fill-rule: evenodd;
      }

      .cls-5 {
        clip-path: url(#clippath);
      }

      .cls-6 {
        fill: none;
      }

      .cls-7, .cls-4 {
        fill: #d2d3d5;
      }
    </style>
    <clipPath id="clippath">
      <rect class="cls-6" x="69.13" width="326.62" height="172.2"/>
    </clipPath>
    <clipPath id="clippath-1">
      <rect class="cls-6" x="185.17" y="224.79" width="82.05" height="51.34"/>
    </clipPath>
  </defs>
  <g>
    <g class="cls-5">
      <path class="cls-4" d="M320.91,80c35.13-18.27,63.27-34.62,74.85-43.7-23.66,13.16-49.1,25.48-76.23,36.88-.33,.16-.67,.27-.99,.44-3.92,1.65-7.83,3.25-11.86,4.85-1.93,.77-4.19,1.65-6.79,2.64-28.07,10.68-93.01,32.75-140.94,43.15-7.45,1.6-14.46,2.97-20.91,3.91-29.79,4.51-46.39,1.04-29.84-18.88,.27-.34,.55-.67,.82-.99-.44,.11-.88,.28-1.32,.44-21.01,7.26-27.36,39.3,12.63,33.74,7.5-1.1,15.01-2.42,22.45-3.9,7.12-1.43,14.23-2.97,21.29-4.73,33.32-8.15,66.09-19.54,97.42-32.31-7.45,3.36-50.91,23.12-93.61,37.82-7.01,2.42-13.96,4.68-20.69,6.71-42.8,12.94-78.27,16.84-65.8-11.83-32.11,43.48,2.26,43.48,58.69,25.1,4.36-1.43,8.88-2.97,13.46-4.57,5.02-1.76,10.21-3.69,15.45-5.67,1.82-.71,3.69-1.43,5.57-2.14,40.43-15.63,86.44-36.83,126.43-56.92,6.79-3.41,13.41-6.82,19.81-10.12l.12,.11Zm-167.42,3.81c5.35-35.4,35.74-62.7,72.48-62.98h.6c27.25,0,51.14,14.48,64.16,36.05,3.42-.99,6.84-2.03,10.21-3.08,3.36-1.04,6.73-2.09,10.09-3.19C295.04,20.55,263.15,.02,226.52,.02h-.71c-48.44,.33-88.21,37.26-93.45,84.38-.22,2.1-.39,4.18-.5,6.33-.05,1.65-.11,3.36-.11,5.01,.11,6.61,.88,13.16,2.38,19.49,1.71-.16,3.47-.28,5.19-.44,5.07-.49,10.31-1.15,15.61-1.92,40.77-5.89,87.93-19.81,141.55-41.78,.22-.11,.49-.21,.71-.27,3.81-1.55,7.62-3.14,11.53-4.79,2.54-1.1,5.13-2.2,7.73-3.3,20.3-8.8,41.53-18.71,63.6-29.67-23.05,8.75-45.12,16.52-66.2,23.28-3.69,1.22-7.39,2.37-11.03,3.47-3.03,.94-6.02,1.87-8.99,2.75-1.44,.44-2.81,.83-4.25,1.27-51.96,15.3-97.58,24.05-136.75,26.31,.16-2.14,.39-4.3,.67-6.39v.06Z"/>
    </g>
    <path class="cls-2" d="M321.07,99.65c-7.56,5.28-15.23,10.57-22.9,15.75-3.36,11.39-9.43,21.91-17.71,30.38-12.74,13.1-20.96,29.67-23.78,47.67-.21,1.49-1.71,3.03-3.64,3.03h-52.23c-1.6,0-3.37-.88-3.64-2.97-.89-5.67-2.32-11.28-4.31-16.67-.71-1.99-1.55-3.97-2.37-5.89,30.06-13.71,66.69-35.28,109.77-64.62,5.63-3.8,11.31-7.76,17.16-11.83,1.49-1.04,3.03-2.14,4.58-3.2,2.7-1.87,5.41-3.8,8.16-5.78,4.75-3.35,9.55-6.82,14.4-10.35-5.41,3.02-10.7,6-15.89,8.86-2.26,1.27-4.58,2.48-6.84,3.75-1.77,.94-3.53,1.92-5.3,2.86-5.23,2.81-10.37,5.56-15.44,8.2-48.54,25.48-89.09,43.48-121.64,53.89-4.91,1.55-9.66,2.97-14.18,4.18-2.76,.77-5.46,1.43-8.11,2.04,.44,.49,.89,.94,1.32,1.37,5.36,5.51,9.71,12,12.85,18.99,.89,1.92,1.66,3.91,2.38,5.89,1.27,3.74,2.26,7.59,2.87,11.5,1.77,12.01,12.02,20.64,24.22,20.64h52.29c11.97,0,22.35-8.86,24.22-20.64,2.1-13.86,8.44-26.41,18.04-36.32,15.94-16.29,25.43-38.42,26.53-61.26-.27,.21-.6,.38-.88,.6l.06-.06Z"/>
    <g class="cls-3">
      <path class="cls-2" d="M260.39,225.53h-66.91c-3.58,0-6.51,3.2-6.51,7.04v6.77c0,3.85,2.93,7.04,6.51,7.04h66.91c3.58,0,6.51-3.19,6.51-7.04v-6.77c0-3.85-2.93-7.04-6.51-7.04Zm-8.38,29.77h-50.15c-3.58,0-6.51,3.2-6.51,7.05v6.77c0,3.85,2.93,7.04,6.51,7.04h50.15c3.58,0,6.51-3.2,6.51-7.04v-6.77c0-3.85-2.93-7.05-6.51-7.05Z"/>
    </g>
  </g>
  <g>
    <path class="cls-1" d="M1.47,311.35c-.92,0-1.47,.56-1.47,1.48v9.22c0,.92,.55,1.47,1.47,1.47H12.16v60.12c0,1.01,.56,1.47,1.48,1.47h9.59c1.01,0,1.47-.46,1.47-1.47v-60.12h10.69c1.02,0,1.48-.55,1.48-1.47v-9.22c0-.92-.46-1.48-1.48-1.48H1.47Z"/>
    <path class="cls-1" d="M84.63,322.05c0-.92-.37-1.48-1.48-1.48H49.22c-.83,0-1.38,.56-1.38,1.48v61.59c0,.92,.55,1.47,1.38,1.47h33.92c1.11,0,1.48-.55,1.48-1.47v-9.22c0-1.02-.37-1.48-1.48-1.48h-22.76v-13.64h17.33c.92,0,1.47-.55,1.47-1.57v-9.12c0-1.02-.55-1.57-1.47-1.57h-17.33v-14.2h22.76c1.11,0,1.48-.64,1.48-1.56v-9.22Z"/>
    <path class="cls-1" d="M134.4,333.85c0-8.67-4.7-13.28-13.27-13.28h-10.32c-8.67,0-13.37,4.61-13.37,13.28v37.98c0,8.66,4.7,13.27,13.37,13.27h10.32c8.57,0,13.27-4.61,13.27-13.27v-9.96c0-.92-.55-1.47-1.47-1.47h-8.67c-1.01,0-1.47,.55-1.47,1.47v7.84c0,2.48-1.29,3.68-3.69,3.68h-5.9c-2.39,0-3.69-1.2-3.69-3.68v-33.47c0-2.39,1.2-3.68,3.69-3.68h5.9c2.4,0,3.69,1.29,3.69,3.68v7.56c0,.92,.46,1.48,1.47,1.48h8.67c.92,0,1.47-.56,1.47-1.48v-9.95Z"/>
    <path class="cls-1" d="M171.55,346.94h-11.79v-24.89c0-.92-.56-1.48-1.48-1.48h-9.49c-1.11,0-1.57,.56-1.57,1.48v61.59c0,.92,.46,1.47,1.57,1.47h9.49c.92,0,1.48-.55,1.48-1.47v-24.53h11.79v24.53c0,.92,.56,1.47,1.48,1.47h9.49c1.11,0,1.57-.55,1.57-1.47v-61.59c0-.92-.46-1.48-1.57-1.48h-9.49c-.92,0-1.48,.56-1.48,1.48v24.89Z"/>
    <path class="cls-1" d="M226.13,320.57c-1.01,0-1.47,.56-1.47,1.48v34.94l-17.33-35.22c-.37-.83-.83-1.2-1.66-1.2h-7.29c-.92,0-1.47,.56-1.47,1.48v61.59c0,.92,.55,1.47,1.47,1.47h8.67c1.01,0,1.47-.55,1.47-1.47v-34.94l17.33,35.22c.37,.83,.83,1.2,1.66,1.2h7.29c.92,0,1.47-.55,1.47-1.47v-61.59c0-.92-.55-1.48-1.47-1.48h-8.67Z"/>
    <path class="cls-1" d="M249.08,371.84c0,8.66,4.61,13.27,13.27,13.27h10.33c8.66,0,13.27-4.61,13.27-13.27v-37.98c0-8.67-4.61-13.28-13.27-13.28h-10.33c-8.66,0-13.27,4.61-13.27,13.28v37.98Zm15.67,1.38c-2.4,0-3.69-1.2-3.69-3.69v-33.37c0-2.4,1.29-3.69,3.69-3.69h5.9c2.4,0,3.69,1.29,3.69,3.69v33.37c0,2.49-1.29,3.69-3.69,3.69h-5.9Z"/>
    <path class="cls-1" d="M329.48,320.57c-1.11,0-1.76,.56-2.03,1.66l-9.22,41.67-9.13-41.67c-.27-1.1-.92-1.66-2.02-1.66h-8.39c-1.39,0-1.94,.74-1.66,2.03l14.56,60.85c.28,1.11,.92,1.66,2.03,1.66h9.22c1.1,0,1.75-.55,2.03-1.66l14.65-60.85c.28-1.29-.27-2.03-1.66-2.03h-8.38Z"/>
    <path class="cls-1" d="M352.05,385.11c-1.01,0-1.47-.55-1.47-1.47v-61.59c0-.92,.46-1.48,1.47-1.48h9.59c.92,0,1.48,.56,1.48,1.48v61.59c0,.92-.56,1.47-1.48,1.47h-9.59Z"/>
    <path class="cls-1" d="M405.16,320.57c-1.01,0-1.47,.56-1.47,1.48v34.94l-17.33-35.22c-.37-.83-.83-1.2-1.66-1.2h-7.29c-.92,0-1.47,.56-1.47,1.48v61.59c0,.92,.55,1.47,1.47,1.47h8.67c1.01,0,1.47-.55,1.47-1.47v-34.94l17.33,35.22c.37,.83,.83,1.2,1.66,1.2h7.29c.92,0,1.47-.55,1.47-1.47v-61.59c0-.92-.55-1.48-1.47-1.48h-8.67Z"/>
    <path class="cls-1" d="M464.89,322.05c0-.92-.37-1.48-1.48-1.48h-33.92c-.83,0-1.38,.56-1.38,1.48v61.59c0,.92,.55,1.47,1.38,1.47h33.92c1.11,0,1.48-.55,1.48-1.47v-9.22c0-1.02-.37-1.48-1.48-1.48h-22.76v-13.64h17.33c.92,0,1.47-.55,1.47-1.57v-9.12c0-1.02-.55-1.57-1.47-1.57h-17.33v-14.2h22.76c1.11,0,1.48-.64,1.48-1.56v-9.22Z"/>
  </g>
  <g>
    <path class="cls-7" d="M106.37,412.57c-4.11,0-6.36,2.21-6.36,6.36v10.44c0,.84,.39,1.37,1.19,1.64l10.48,3.44v5.88c0,1.19-.62,1.77-1.77,1.77h-2.12c-1.11,0-1.78-.58-1.78-1.77v-3.4c0-.48-.21-.71-.71-.71h-4.59c-.44,0-.71,.22-.71,.71v4.64c0,4.16,2.25,6.37,6.36,6.37h4.96c4.16,0,6.36-2.21,6.36-6.37v-10.21c0-.84-.39-1.32-1.14-1.64l-10.53-3.45v-6.1c0-1.15,.67-1.77,1.78-1.77h2.12c1.19,0,1.77,.62,1.77,1.77v3.45c0,.44,.26,.71,.71,.71h4.59c.49,0,.71-.27,.71-.71v-4.69c0-4.15-2.2-6.36-6.36-6.36h-4.96Z"/>
    <path class="cls-7" d="M132.71,441.56c0,4.16,2.21,6.37,6.36,6.37h4.96c4.16,0,6.36-2.21,6.36-6.37v-18.21c0-4.15-2.2-6.36-6.36-6.36h-4.96c-4.15,0-6.36,2.21-6.36,6.36v18.21Zm7.51,.67c-1.15,0-1.77-.58-1.77-1.77v-16c0-1.15,.62-1.77,1.77-1.77h2.84c1.14,0,1.77,.62,1.77,1.77v16c0,1.19-.62,1.77-1.77,1.77h-2.84Z"/>
    <path class="cls-7" d="M171.43,442.09h8.75c.49,0,.71,.26,.71,.71v4.42c0,.48-.22,.71-.71,.71h-14.05c-.44,0-.71-.22-.71-.71v-29.53c0-.44,.26-.71,.71-.71h4.59c.49,0,.71,.26,.71,.71v24.4Z"/>
    <path class="cls-7" d="M208.65,416.99c-.48,0-.89,.39-.89,.88v22.46c0,1.19-.62,1.77-1.77,1.77h-2.29c-1.15,0-1.78-.58-1.78-1.77v-22.46c0-.48-.39-.88-.88-.88h-4.24c-.49,0-.89,.39-.89,.88v23.69c0,4.16,2.21,6.37,6.36,6.37h4.96c4.16,0,6.36-2.21,6.36-6.37v-23.69c0-.48-.39-.88-.88-.88h-4.07Z"/>
    <path class="cls-7" d="M244.72,416.99c.48,0,.71,.26,.71,.71v4.42c0,.44-.22,.71-.71,.71h-5.13v24.4c0,.48-.22,.71-.71,.71h-4.6c-.44,0-.71-.22-.71-.71v-24.4h-5.13c-.44,0-.71-.26-.71-.71v-4.42c0-.44,.27-.71,.71-.71h16.27Z"/>
    <path class="cls-7" d="M260.27,447.93c-.48,0-.71-.26-.71-.71v-29.53c0-.44,.22-.71,.71-.71h4.59c.44,0,.71,.26,.71,.71v29.53c0,.44-.26,.71-.71,.71h-4.59Z"/>
    <path class="cls-7" d="M280.6,441.56c0,4.16,2.21,6.37,6.36,6.37h4.96c4.16,0,6.36-2.21,6.36-6.37v-18.21c0-4.15-2.2-6.36-6.36-6.36h-4.96c-4.15,0-6.36,2.21-6.36,6.36v18.21Zm7.51,.67c-1.15,0-1.77-.58-1.77-1.77v-16c0-1.15,.62-1.77,1.77-1.77h2.84c1.14,0,1.77,.62,1.77,1.77v16c0,1.19-.62,1.77-1.77,1.77h-2.84Z"/>
    <path class="cls-7" d="M327.32,416.99c-.48,0-.71,.26-.71,.71v16.75l-8.31-16.88c-.18-.4-.4-.58-.8-.58h-3.49c-.44,0-.71,.26-.71,.71v29.53c0,.44,.26,.71,.71,.71h4.16c.48,0,.71-.26,.71-.71v-16.76l8.31,16.89c.17,.39,.39,.58,.8,.58h3.49c.44,0,.71-.26,.71-.71v-29.53c0-.44-.27-.71-.71-.71h-4.16Z"/>
    <path class="cls-7" d="M353.57,416.99c-4.11,0-6.36,2.21-6.36,6.36v7.65c0,.84,.39,1.37,1.19,1.64l10.61,3.44v4.47c0,1.19-.62,1.77-1.77,1.77h-2.39c-1.1,0-1.77-.58-1.77-1.77v-1.86c0-.48-.22-.71-.71-.71h-4.46c-.44,0-.71,.22-.71,.71v2.87c0,4.16,2.25,6.37,6.36,6.37h4.96c4.16,0,6.36-2.21,6.36-6.37v-8.31c0-.84-.39-1.37-1.14-1.64l-10.7-3.44v-3.76c0-1.14,.67-1.77,1.77-1.77h2.43c1.19,0,1.77,.62,1.77,1.77v1.86c0,.44,.26,.71,.71,.71h4.46c.49,0,.71-.26,.71-.71v-2.92c0-4.15-2.2-6.36-6.36-6.36h-4.96Z"/>
  </g>
</svg>