<?xml version="1.0" encoding="utf-8"?>
<!-- Generator: Adobe Illustrator 27.0.0, SVG Export Plug-In . SVG Version: 6.00 Build 0)  -->
<svg version="1.1" id="Layer_1" xmlns="http://www.w3.org/2000/svg" xmlns:xlink="http://www.w3.org/1999/xlink" x="0px" y="0px"
	 viewBox="0 0 600 600" style="enable-background:new 0 0 600 600;" xml:space="preserve">
<style type="text/css">
	.st0{fill:#FFFFFF;}
	.st1{fill:#170900;}
	.st2{clip-path:url(#SVGID_00000157269714087097366660000012338069191935273346_);}
	.st3{fill-rule:evenodd;clip-rule:evenodd;fill:#D2D3D5;}
	.st4{fill-rule:evenodd;clip-rule:evenodd;fill:#FF914D;}
	.st5{clip-path:url(#SVGID_00000005980122675614380360000016970281679445356707_);}
	.st6{fill:#FF914D;}
	.st7{fill:#D2D3D5;}
</style>
<rect class="st0" width="600" height="600"/>
<rect class="st0" width="600" height="600"/>
<rect class="st1" width="600" height="600"/>
<g>
	<g>
		<g>
			<defs>
				<rect id="SVGID_1_" x="136.7" y="76" width="326.6" height="172.2"/>
			</defs>
			<clipPath id="SVGID_00000054956004036800790180000003066845941681412767_">
				<use xlink:href="#SVGID_1_"  style="overflow:visible;"/>
			</clipPath>
			<g style="clip-path:url(#SVGID_00000054956004036800790180000003066845941681412767_);">
				<path class="st3" d="M388.5,156c35.1-18.3,63.3-34.6,74.9-43.7c-23.7,13.2-49.1,25.5-76.2,36.9c-0.3,0.2-0.7,0.3-1,0.4
					c-3.9,1.7-7.8,3.3-11.9,4.8c-1.9,0.8-4.2,1.7-6.8,2.6c-28.1,10.7-93,32.7-140.9,43.2c-7.4,1.6-14.5,3-20.9,3.9
					c-29.8,4.5-46.4,1-29.8-18.9c0.3-0.3,0.6-0.7,0.8-1c-0.4,0.1-0.9,0.3-1.3,0.4c-21,7.3-27.4,39.3,12.6,33.7
					c7.5-1.1,15-2.4,22.5-3.9c7.1-1.4,14.2-3,21.3-4.7c33.3-8.2,66.1-19.5,97.4-32.3c-7.4,3.4-50.9,23.1-93.6,37.8
					c-7,2.4-14,4.7-20.7,6.7c-42.8,12.9-78.3,16.8-65.8-11.8c-32.1,43.5,2.3,43.5,58.7,25.1c4.4-1.4,8.9-3,13.5-4.6
					c5-1.8,10.2-3.7,15.5-5.7c1.8-0.7,3.7-1.4,5.6-2.1c40.4-15.6,86.4-36.8,126.4-56.9c6.8-3.4,13.4-6.8,19.8-10.1L388.5,156z
					 M221,159.8c5.4-35.4,35.7-62.7,72.5-63h0.6c27.3,0,51.1,14.5,64.2,36.1c3.4-1,6.8-2,10.2-3.1c3.4-1,6.7-2.1,10.1-3.2
					c-16-30.1-47.9-50.6-84.5-50.6h-0.7c-48.4,0.3-88.2,37.3-93.4,84.4c-0.2,2.1-0.4,4.2-0.5,6.3c0,1.7-0.1,3.4-0.1,5
					c0.1,6.6,0.9,13.2,2.4,19.5c1.7-0.2,3.5-0.3,5.2-0.4c5.1-0.5,10.3-1.2,15.6-1.9c40.8-5.9,87.9-19.8,141.6-41.8
					c0.2-0.1,0.5-0.2,0.7-0.3c3.8-1.5,7.6-3.1,11.5-4.8c2.5-1.1,5.1-2.2,7.7-3.3c20.3-8.8,41.5-18.7,63.6-29.7
					c-23.1,8.8-45.1,16.5-66.2,23.3c-3.7,1.2-7.4,2.4-11,3.5c-3,0.9-6,1.9-9,2.8c-1.4,0.4-2.8,0.8-4.2,1.3
					c-52,15.3-97.6,24.1-136.8,26.3C220.5,164,220.8,161.9,221,159.8L221,159.8z"/>
			</g>
		</g>
		<path class="st4" d="M388.6,175.7c-7.6,5.3-15.2,10.6-22.9,15.7c-3.4,11.4-9.4,21.9-17.7,30.4c-12.7,13.1-21,29.7-23.8,47.7
			c-0.2,1.5-1.7,3-3.6,3c-51.7,0-0.4,0-52.2,0c-1.6,0-3.4-0.9-3.6-3c-0.9-5.7-2.3-11.3-4.3-16.7c-0.7-2-1.5-4-2.4-5.9
			c30.1-13.7,66.7-35.3,109.8-64.6c5.6-3.8,11.3-7.8,17.2-11.8c1.5-1,3-2.1,4.6-3.2c2.7-1.9,5.4-3.8,8.2-5.8
			c4.8-3.4,9.5-6.8,14.4-10.3c-5.4,3-10.7,6-15.9,8.9c-2.3,1.3-4.6,2.5-6.8,3.7c-1.8,0.9-3.5,1.9-5.3,2.9
			c-5.2,2.8-10.4,5.6-15.4,8.2c-48.5,25.5-89.1,43.5-121.6,53.9c-4.9,1.5-9.7,3-14.2,4.2c-2.8,0.8-5.5,1.4-8.1,2
			c0.4,0.5,0.9,0.9,1.3,1.4c5.4,5.5,9.7,12,12.9,19c0.9,1.9,1.7,3.9,2.4,5.9c1.3,3.7,2.3,7.6,2.9,11.5c1.8,12,12,20.6,24.2,20.6
			h52.3c12,0,22.3-8.9,24.2-20.6c2.1-13.9,8.4-26.4,18-36.3c15.9-16.3,25.4-38.4,26.5-61.3C389.2,175.4,388.8,175.5,388.6,175.7
			L388.6,175.7z"/>
		<g>
			<defs>
				<rect id="SVGID_00000080169666286847407750000002999403533223364235_" x="252.7" y="300.8" width="82.1" height="51.3"/>
			</defs>
			<clipPath id="SVGID_00000003826495108168122180000013863197202803397275_">
				<use xlink:href="#SVGID_00000080169666286847407750000002999403533223364235_"  style="overflow:visible;"/>
			</clipPath>
			<g style="clip-path:url(#SVGID_00000003826495108168122180000013863197202803397275_);">
				<path class="st4" d="M327.9,301.6H261c-3.6,0-6.5,3.2-6.5,7v6.8c0,3.9,2.9,7,6.5,7h66.9c3.6,0,6.5-3.2,6.5-7v-6.8
					C334.5,304.8,331.5,301.6,327.9,301.6z M319.6,331.3h-50.1c-3.6,0-6.5,3.2-6.5,7.1v6.8c0,3.8,2.9,7,6.5,7h50.1
					c3.6,0,6.5-3.2,6.5-7v-6.8C326.1,334.5,323.1,331.3,319.6,331.3z"/>
			</g>
		</g>
	</g>
	<g>
		<g>
			<g transform="translate(62.395454, 262.200974)">
				<g>
					<path class="st6" d="M6.6,125.2c-0.9,0-1.5,0.6-1.5,1.5v9.2c0,0.9,0.6,1.5,1.5,1.5h10.7v60.1c0,1,0.6,1.5,1.5,1.5h9.6
						c1,0,1.5-0.5,1.5-1.5v-60.1h10.7c1,0,1.5-0.6,1.5-1.5v-9.2c0-0.9-0.5-1.5-1.5-1.5H6.6z"/>
				</g>
			</g>
		</g>
		<g>
			<g transform="translate(84.260447, 262.200974)">
				<g>
					<path class="st6" d="M67.9,135.9c0-0.9-0.4-1.5-1.5-1.5H32.5c-0.8,0-1.4,0.6-1.4,1.5v61.6c0,0.9,0.6,1.5,1.4,1.5h33.9
						c1.1,0,1.5-0.6,1.5-1.5v-9.2c0-1-0.4-1.5-1.5-1.5H43.7v-13.6H61c0.9,0,1.5-0.6,1.5-1.6v-9.1c0-1-0.6-1.6-1.5-1.6H43.7v-14.2
						h22.8c1.1,0,1.5-0.6,1.5-1.6V135.9z"/>
				</g>
			</g>
		</g>
		<g>
			<g transform="translate(107.834303, 262.200974)">
				<g>
					<path class="st6" d="M94.1,147.7c0-8.7-4.7-13.3-13.3-13.3H70.5c-8.7,0-13.4,4.6-13.4,13.3v38c0,8.7,4.7,13.3,13.4,13.3h10.3
						c8.6,0,13.3-4.6,13.3-13.3v-10c0-0.9-0.6-1.5-1.5-1.5H84c-1,0-1.5,0.6-1.5,1.5v7.8c0,2.5-1.3,3.7-3.7,3.7h-5.9
						c-2.4,0-3.7-1.2-3.7-3.7v-33.5c0-2.4,1.2-3.7,3.7-3.7h5.9c2.4,0,3.7,1.3,3.7,3.7v7.6c0,0.9,0.5,1.5,1.5,1.5h8.7
						c0.9,0,1.5-0.6,1.5-1.5V147.7z"/>
				</g>
			</g>
		</g>
		<g>
			<g transform="translate(131.495792, 262.200974)">
				<g>
					<path class="st6" d="M107.6,160.8H95.8v-24.9c0-0.9-0.6-1.5-1.5-1.5h-9.5c-1.1,0-1.6,0.6-1.6,1.5v61.6c0,0.9,0.5,1.5,1.6,1.5
						h9.5c0.9,0,1.5-0.6,1.5-1.5v-24.5h11.8v24.5c0,0.9,0.6,1.5,1.5,1.5h9.5c1.1,0,1.6-0.6,1.6-1.5v-61.6c0-0.9-0.5-1.5-1.6-1.5
						h-9.5c-0.9,0-1.5,0.6-1.5,1.5V160.8z"/>
				</g>
			</g>
		</g>
		<g>
			<g transform="translate(155.113468, 262.200974)">
				<g>
					<path class="st6" d="M138.6,134.4c-1,0-1.5,0.6-1.5,1.5v34.9l-17.3-35.2c-0.4-0.8-0.8-1.2-1.7-1.2h-7.3c-0.9,0-1.5,0.6-1.5,1.5
						v61.6c0,0.9,0.6,1.5,1.5,1.5h8.7c1,0,1.5-0.6,1.5-1.5v-34.9l17.3,35.2c0.4,0.8,0.8,1.2,1.7,1.2h7.3c0.9,0,1.5-0.6,1.5-1.5
						v-61.6c0-0.9-0.6-1.5-1.5-1.5H138.6z"/>
				</g>
			</g>
		</g>
		<g>
			<g transform="translate(179.914208, 262.200974)">
				<g>
					<path class="st6" d="M136.7,185.7c0,8.7,4.6,13.3,13.3,13.3h10.3c8.7,0,13.3-4.6,13.3-13.3v-38c0-8.7-4.6-13.3-13.3-13.3H150
						c-8.7,0-13.3,4.6-13.3,13.3V185.7z M152.4,187.1c-2.4,0-3.7-1.2-3.7-3.7V150c0-2.4,1.3-3.7,3.7-3.7h5.9c2.4,0,3.7,1.3,3.7,3.7
						v33.4c0,2.5-1.3,3.7-3.7,3.7H152.4z"/>
				</g>
			</g>
		</g>
		<g>
			<g transform="translate(203.531884, 262.200974)">
				<g>
					<path class="st6" d="M193.5,134.4c-1.1,0-1.8,0.6-2,1.7l-9.2,41.7l-9.1-41.7c-0.3-1.1-0.9-1.7-2-1.7h-8.4c-1.4,0-1.9,0.7-1.7,2
						l14.6,60.8c0.3,1.1,0.9,1.7,2,1.7h9.2c1.1,0,1.8-0.6,2-1.7l14.7-60.8c0.3-1.3-0.3-2-1.7-2H193.5z"/>
				</g>
			</g>
		</g>
		<g>
			<g transform="translate(228.157361, 262.200974)">
				<g>
					<path class="st6" d="M191.4,198.9c-1,0-1.5-0.6-1.5-1.5v-61.6c0-0.9,0.5-1.5,1.5-1.5h9.6c0.9,0,1.5,0.6,1.5,1.5v61.6
						c0,0.9-0.6,1.5-1.5,1.5H191.4z"/>
				</g>
			</g>
		</g>
		<g>
			<g transform="translate(240.2073, 262.200974)">
				<g>
					<path class="st6" d="M232.5,134.4c-1,0-1.5,0.6-1.5,1.5v34.9l-17.3-35.2c-0.4-0.8-0.8-1.2-1.7-1.2h-7.3c-0.9,0-1.5,0.6-1.5,1.5
						v61.6c0,0.9,0.6,1.5,1.5,1.5h8.7c1,0,1.5-0.6,1.5-1.5v-34.9l17.3,35.2c0.4,0.8,0.8,1.2,1.7,1.2h7.3c0.9,0,1.5-0.6,1.5-1.5
						v-61.6c0-0.9-0.6-1.5-1.5-1.5H232.5z"/>
				</g>
			</g>
		</g>
		<g>
			<g transform="translate(265.00803, 262.200974)">
				<g>
					<path class="st6" d="M267.4,135.9c0-0.9-0.4-1.5-1.5-1.5H232c-0.8,0-1.4,0.6-1.4,1.5v61.6c0,0.9,0.6,1.5,1.4,1.5H266
						c1.1,0,1.5-0.6,1.5-1.5v-9.2c0-1-0.4-1.5-1.5-1.5h-22.8v-13.6h17.3c0.9,0,1.5-0.6,1.5-1.6v-9.1c0-1-0.6-1.6-1.5-1.6h-17.3
						v-14.2H266c1.1,0,1.5-0.6,1.5-1.6V135.9z"/>
				</g>
			</g>
		</g>
	</g>
	<g>
		<g>
			<g transform="translate(123.494291, 292.060219)">
				<g>
					<path class="st7" d="M50.4,196.5c-4.1,0-6.4,2.2-6.4,6.4v10.4c0,0.8,0.4,1.4,1.2,1.6l10.5,3.4v5.9c0,1.2-0.6,1.8-1.8,1.8h-2.1
						c-1.1,0-1.8-0.6-1.8-1.8v-3.4c0-0.5-0.2-0.7-0.7-0.7h-4.6c-0.4,0-0.7,0.2-0.7,0.7v4.6c0,4.2,2.3,6.4,6.4,6.4h5
						c4.2,0,6.4-2.2,6.4-6.4v-10.2c0-0.8-0.4-1.3-1.1-1.6l-10.5-3.5v-6.1c0-1.2,0.7-1.8,1.8-1.8H54c1.2,0,1.8,0.6,1.8,1.8v3.5
						c0,0.4,0.3,0.7,0.7,0.7H61c0.5,0,0.7-0.3,0.7-0.7v-4.7c0-4.2-2.2-6.4-6.4-6.4H50.4z"/>
				</g>
			</g>
		</g>
		<g>
			<g transform="translate(139.040189, 292.060219)">
				<g>
					<path class="st7" d="M61.2,225.5c0,4.2,2.2,6.4,6.4,6.4h5c4.2,0,6.4-2.2,6.4-6.4v-18.2c0-4.2-2.2-6.4-6.4-6.4h-5
						c-4.2,0-6.4,2.2-6.4,6.4V225.5z M68.7,226.2c-1.2,0-1.8-0.6-1.8-1.8v-16c0-1.2,0.6-1.8,1.8-1.8h2.8c1.1,0,1.8,0.6,1.8,1.8v16
						c0,1.2-0.6,1.8-1.8,1.8H68.7z"/>
				</g>
			</g>
		</g>
		<g>
			<g transform="translate(154.586086, 292.060219)">
				<g>
					<path class="st7" d="M84.4,226.1h8.8c0.5,0,0.7,0.3,0.7,0.7v4.4c0,0.5-0.2,0.7-0.7,0.7H79.1c-0.4,0-0.7-0.2-0.7-0.7v-29.5
						c0-0.4,0.3-0.7,0.7-0.7h4.6c0.5,0,0.7,0.3,0.7,0.7V226.1z"/>
				</g>
			</g>
		</g>
		<g>
			<g transform="translate(169.081791, 292.060219)">
				<g>
					<path class="st7" d="M107.1,201c-0.5,0-0.9,0.4-0.9,0.9v22.5c0,1.2-0.6,1.8-1.8,1.8h-2.3c-1.2,0-1.8-0.6-1.8-1.8v-22.5
						c0-0.5-0.4-0.9-0.9-0.9h-4.2c-0.5,0-0.9,0.4-0.9,0.9v23.7c0,4.2,2.2,6.4,6.4,6.4h5c4.2,0,6.4-2.2,6.4-6.4v-23.7
						c0-0.5-0.4-0.9-0.9-0.9H107.1z"/>
				</g>
			</g>
		</g>
		<g>
			<g transform="translate(184.62769, 292.060219)">
				<g>
					<path class="st7" d="M127.6,201c0.5,0,0.7,0.3,0.7,0.7v4.4c0,0.4-0.2,0.7-0.7,0.7h-5.1v24.4c0,0.5-0.2,0.7-0.7,0.7h-4.6
						c-0.4,0-0.7-0.2-0.7-0.7v-24.4h-5.1c-0.4,0-0.7-0.3-0.7-0.7v-4.4c0-0.4,0.3-0.7,0.7-0.7H127.6z"/>
				</g>
			</g>
		</g>
		<g>
			<g transform="translate(199.333436, 292.060219)">
				<g>
					<path class="st7" d="M128.5,231.9c-0.5,0-0.7-0.3-0.7-0.7v-29.5c0-0.4,0.2-0.7,0.7-0.7h4.6c0.4,0,0.7,0.3,0.7,0.7v29.5
						c0,0.4-0.3,0.7-0.7,0.7H128.5z"/>
				</g>
			</g>
		</g>
		<g>
			<g transform="translate(209.334291, 292.060219)">
				<g>
					<path class="st7" d="M138.8,225.5c0,4.2,2.2,6.4,6.4,6.4h5c4.2,0,6.4-2.2,6.4-6.4v-18.2c0-4.2-2.2-6.4-6.4-6.4h-5
						c-4.2,0-6.4,2.2-6.4,6.4V225.5z M146.3,226.2c-1.2,0-1.8-0.6-1.8-1.8v-16c0-1.2,0.6-1.8,1.8-1.8h2.8c1.1,0,1.8,0.6,1.8,1.8v16
						c0,1.2-0.6,1.8-1.8,1.8H146.3z"/>
				</g>
			</g>
		</g>
		<g>
			<g transform="translate(224.880189, 292.060219)">
				<g>
					<path class="st7" d="M170,201c-0.5,0-0.7,0.3-0.7,0.7v16.7l-8.3-16.9c-0.2-0.4-0.4-0.6-0.8-0.6h-3.5c-0.4,0-0.7,0.3-0.7,0.7
						v29.5c0,0.4,0.3,0.7,0.7,0.7h4.2c0.5,0,0.7-0.3,0.7-0.7v-16.8l8.3,16.9c0.2,0.4,0.4,0.6,0.8,0.6h3.5c0.4,0,0.7-0.3,0.7-0.7
						v-29.5c0-0.4-0.3-0.7-0.7-0.7H170z"/>
				</g>
			</g>
		</g>
		<g>
			<g transform="translate(240.993201, 292.060219)">
				<g>
					<path class="st7" d="M180.1,201c-4.1,0-6.4,2.2-6.4,6.4v7.7c0,0.8,0.4,1.4,1.2,1.6l10.6,3.4v4.5c0,1.2-0.6,1.8-1.8,1.8h-2.4
						c-1.1,0-1.8-0.6-1.8-1.8v-1.9c0-0.5-0.2-0.7-0.7-0.7h-4.5c-0.4,0-0.7,0.2-0.7,0.7v2.9c0,4.2,2.3,6.4,6.4,6.4h5
						c4.2,0,6.4-2.2,6.4-6.4v-8.3c0-0.8-0.4-1.4-1.1-1.6l-10.7-3.4v-3.8c0-1.1,0.7-1.8,1.8-1.8h2.4c1.2,0,1.8,0.6,1.8,1.8v1.9
						c0,0.4,0.3,0.7,0.7,0.7h4.5c0.5,0,0.7-0.3,0.7-0.7v-2.9c0-4.2-2.2-6.4-6.4-6.4H180.1z"/>
				</g>
			</g>
		</g>
	</g>
</g>
</svg>
